<svg xmlns="http://www.w3.org/2000/svg" width="30.256" height="30.256" viewBox="0 0 30.256 30.256"><defs><style>.a{fill:#fbbb00;}.b{fill:#518ef8;}.c{fill:#28b446;}.d{fill:#f14336;}</style></defs><path class="a" d="M6.705,148.381l-1.053,3.932-3.849.081a15.154,15.154,0,0,1-.111-14.126h0l3.427.628,1.5,3.406a9.029,9.029,0,0,0,.085,6.079Z" transform="translate(0 -130.097)"/><path class="b" d="M276.159,208.176a15.122,15.122,0,0,1-5.393,14.623h0l-4.316-.22-.611-3.814a9.016,9.016,0,0,0,3.879-4.6h-8.089v-5.985h14.531Z" transform="translate(-246.167 -195.874)"/><path class="c" d="M53.3,318.049h0a15.133,15.133,0,0,1-22.8-4.628l4.9-4.013a9,9,0,0,0,12.965,4.607Z" transform="translate(-28.706 -291.125)"/><path class="d" d="M51.717,3.483l-4.9,4.012a9,9,0,0,0-13.263,4.71L28.625,8.171h0A15.131,15.131,0,0,1,51.717,3.483Z" transform="translate(-26.932)"/></svg>