<svg xmlns="http://www.w3.org/2000/svg" xmlns:xlink="http://www.w3.org/1999/xlink" width="739.143" height="619.367" viewBox="0 0 739.143 619.367"><defs><style>.a{fill:url(#a);}.b,.t{fill:#fff;}.c{fill:#f5f5f5;}.d{fill:#e0e0e0;}.e{fill:#69f0ae;}.e,.f,.i{opacity:0.4;}.f{fill:#ff0;}.g,.h,.i{fill:#66bb6a;}.h{opacity:0.6;}.j,.k,.l,.m,.w{fill:none;stroke:#66bb6a;stroke-miterlimit:10;}.k{stroke-dasharray:12.71 12.71;}.l{stroke-dasharray:11.33 11.33;}.m{stroke-dasharray:12;}.n,.s,.t{opacity:0.2;}.o{fill:url(#c);}.p{fill:url(#d);}.q{fill:#f8c198;}.r{fill:#263238;}.u{fill:#ff5252;}.v{fill:#fccc63;}.w{stroke-width:3px;opacity:0.5;}</style><linearGradient id="a" x1="0.5" y1="1" x2="0.5" gradientUnits="objectBoundingBox"><stop offset="0" stop-color="gray" stop-opacity="0.251"/><stop offset="0.54" stop-color="gray" stop-opacity="0.122"/><stop offset="1" stop-color="gray" stop-opacity="0.102"/></linearGradient><linearGradient id="c" xlink:href="#a"/><linearGradient id="d" x1="0" y1="0.5" x2="1" y2="0.5" xlink:href="#a"/></defs><g transform="translate(-0.223 0.133)"><rect class="a" width="325" height="440" transform="translate(0.223 -0.133)"/><rect class="b" width="301" height="425" transform="translate(19.223 6.867)"/><rect class="c" width="14" height="425" transform="translate(5.223 6.867)"/><rect class="d" width="201" height="5" transform="translate(69.223 321.867)"/><rect class="e" width="201" height="5" transform="translate(69.223 340.867)"/><rect class="f" width="201" height="5" transform="translate(69.223 359.867)"/><rect class="d" width="201" height="5" transform="translate(69.223 379.867)"/><rect class="d" width="201" height="5" transform="translate(69.223 398.867)"/><path class="g" d="M309.07,165.01c.084-.932.134-1.872.134-2.82a31.326,31.326,0,0,0-1.216-8.642l-3.652.174-1.679-4.6,2.358-2.577a31.658,31.658,0,0,0-7.47-8.762l-2.879,2.233-4.012-2.8.462-3.466a31.2,31.2,0,0,0-11.138-2.9l-1.083,3.483H274l-1.611-3.105a31.331,31.331,0,0,0-15.217,7.243l1.679,3.223-3.458,3.458-3.357-1.049a31.3,31.3,0,0,0-4.809,10.458l3.257,1.679-.839,4.818-3.357,1.049v.076a31.264,31.264,0,0,0,2.09,11.247l3.626-.5,2.065,4.432-2.123,2.77a31.692,31.692,0,0,0,8.192,8.091l2.677-2.518,4.239,2.451-.151,3.508a31.29,31.29,0,0,0,10.827,1.922h.529l.772-3.567,4.876-.428,1.88,2.954a31.323,31.323,0,0,0,10.391-4.952l-1.41-3.357,3.752-3.147,3.223,1.335a31.432,31.432,0,0,0,5.7-10l-3.089-1.947,1.267-4.725Zm-31.306,20.714a23.5,23.5,0,1,1,23.5-23.5,23.5,23.5,0,0,1-23.5,23.5Z" transform="translate(-173.48 -89.85)"/><path class="h" d="M355.07,234.01c.084-.932.134-1.872.134-2.82a31.328,31.328,0,0,0-1.216-8.642l-3.652.174-1.679-4.6,2.358-2.577a31.659,31.659,0,0,0-7.47-8.762l-2.879,2.233-4.012-2.8.462-3.466a31.2,31.2,0,0,0-11.138-2.9l-1.083,3.483H320l-1.611-3.105a31.332,31.332,0,0,0-15.217,7.243l1.679,3.223-3.458,3.458-3.357-1.049a31.3,31.3,0,0,0-4.809,10.458l3.257,1.679-.839,4.818-3.357,1.049v.076a31.265,31.265,0,0,0,2.09,11.247l3.626-.5,2.065,4.432-2.123,2.77a31.692,31.692,0,0,0,8.192,8.091l2.677-2.518,4.239,2.451-.151,3.508a31.29,31.29,0,0,0,10.827,1.922h.529l.772-3.567,4.876-.428,1.88,2.954a31.323,31.323,0,0,0,10.391-4.952l-1.41-3.357,3.752-3.147,3.223,1.335a31.432,31.432,0,0,0,5.7-10l-3.089-1.947,1.267-4.725Zm-31.306,20.714a23.5,23.5,0,1,1,23.5-23.5A23.5,23.5,0,0,1,323.764,254.724Z" transform="translate(-180.871 -100.937)"/><path class="i" d="M402.07,165.01c.084-.932.134-1.872.134-2.82a31.326,31.326,0,0,0-1.216-8.642l-3.652.174-1.679-4.6,2.358-2.577a31.659,31.659,0,0,0-7.47-8.762l-2.879,2.233-4.012-2.8.462-3.466a31.2,31.2,0,0,0-11.138-2.9l-1.083,3.483H367l-1.611-3.105a31.331,31.331,0,0,0-15.217,7.243l1.679,3.223-3.458,3.458-3.357-1.049a31.3,31.3,0,0,0-4.809,10.458l3.257,1.679-.839,4.818-3.357,1.049v.076a31.264,31.264,0,0,0,2.09,11.247l3.626-.5,2.065,4.432-2.123,2.77a31.691,31.691,0,0,0,8.192,8.091l2.677-2.518,4.239,2.451-.151,3.508a31.29,31.29,0,0,0,10.827,1.922h.529l.772-3.567,4.876-.428,1.88,2.954a31.323,31.323,0,0,0,10.391-4.952l-1.41-3.357,3.752-3.147,3.223,1.335a31.432,31.432,0,0,0,5.7-10l-3.089-1.947,1.267-4.725Zm-31.306,20.714a23.5,23.5,0,1,1,23.5-23.5,23.5,23.5,0,0,1-23.5,23.5Z" transform="translate(-188.424 -89.85)"/><path class="g" d="M459.07,234.01c.084-.932.134-1.872.134-2.82a31.327,31.327,0,0,0-1.216-8.642l-3.652.174-1.679-4.6,2.358-2.577a31.66,31.66,0,0,0-7.47-8.762l-2.879,2.233-4.012-2.8.462-3.466a31.2,31.2,0,0,0-11.138-2.9l-1.083,3.483H424l-1.612-3.105a31.331,31.331,0,0,0-15.217,7.243l1.679,3.223-3.458,3.458-3.357-1.049a31.3,31.3,0,0,0-4.809,10.458l3.256,1.679-.839,4.818-3.357,1.049v.076a31.265,31.265,0,0,0,2.09,11.247l3.626-.5,2.065,4.432-2.123,2.77a31.692,31.692,0,0,0,8.192,8.091l2.677-2.518,4.239,2.451-.151,3.508a31.291,31.291,0,0,0,10.827,1.922h.529l.772-3.567,4.876-.428,1.88,2.954a31.323,31.323,0,0,0,10.391-4.952l-1.41-3.357,3.752-3.147,3.223,1.335a31.432,31.432,0,0,0,5.7-10l-3.089-1.947,1.267-4.725Zm-31.306,20.714a23.5,23.5,0,1,1,23.5-23.5A23.5,23.5,0,0,1,427.764,254.724Z" transform="translate(-197.583 -100.937)"/><line class="j" x1="5.036" transform="translate(130.303 18.465)"/><line class="k" x1="58.693" transform="translate(60.942 18.465)"/><path class="j" d="M65.286,22H60.25v5.036" transform="translate(-9.681 -3.535)"/><line class="l" y2="71.341" transform="translate(50.569 33.01)"/><line class="j" y2="5.036" transform="translate(50.569 109.11)"/><path class="m" d="M207.75,203.378H321.9V103.5" transform="translate(-33.383 -16.631)"/><rect class="a" width="258" height="67" transform="translate(86.223 218.867)"/><rect class="g" width="252" height="60" transform="translate(89.223 222.867)"/><rect class="g" width="74" height="3" transform="translate(156.223 237.867)"/><rect class="n" width="74" height="4" transform="translate(156.223 244.867)"/><rect class="b" width="144" height="3" transform="translate(156.223 257.867)"/><circle class="g" cx="16" cy="16" r="16" transform="translate(101.223 236.867)"/><circle class="n" cx="16" cy="16" r="16" transform="translate(101.223 236.867)"/><path class="o" d="M741.827,539.4a1.125,1.125,0,0,0,.151-1.292c-3.609-7.227-7.226-5.414-17.9-26.069-11.364-21.965-8.536-29.326-12.791-33.522-1.679-1.679-3.408-7.285-5.691-8.267l-1.477-5.926a7.613,7.613,0,0,0,3.92-.6,15.913,15.913,0,0,0,5.724-5.036,38.237,38.237,0,0,0,5.875-9.937,27.16,27.16,0,0,0,1.679-8.167h0a27.931,27.931,0,0,0-.076-4.2,16.862,16.862,0,0,0,7.26-3.063,12.59,12.59,0,0,0,4.6-8.267h0c0-.327.076-.646.092-.974a10.142,10.142,0,0,0,0-1.158,12.589,12.589,0,0,0-5.791-9.837,16.425,16.425,0,0,0-10.072-2.09,43.82,43.82,0,0,0-10.2,2.51,32.588,32.588,0,0,0-3.147,1.091,23.308,23.308,0,0,0-7.352-1.2c-4.079,0-8.074,1.074-12.011,2.132l-13.253,3.55c-2.938.789-6,1.679-8.192,3.752a6.948,6.948,0,0,0-.546.6l-.1.126a7.428,7.428,0,0,0-.478.68h0c-1.309,2.115-1.595,4.918,0,6.782a8.074,8.074,0,0,0,2.845,1.964,31.722,31.722,0,0,0,4,1.528,21.823,21.823,0,0,0-3.768,12.288c0,.252,0,.5,0,.747v.747a21.9,21.9,0,0,0,21.9,21.9h.361l.638,5.137a45.324,45.324,0,0,0-7.478,10.458,11.658,11.658,0,0,0-3.668,9.031c-.042,3.643.948,8.1,1.914,14.268l-31.13-13.228-19.438,41.865,14.957,5.514c-7.025.319-10.911,5.456-10.852,10.684a10.34,10.34,0,0,0,3.072,7.73c5.414,5.414,11.985,61.8,11.985,61.8h2.736v5.917c-11.087.672-22.334,2.04-22.334,4.818a9.039,9.039,0,0,0,3.542,6.891c-.159-.193-.319-.4-.47-.621A11.966,11.966,0,0,0,633.7,642.6h60.221V630.159h.1v-1.5s-2.182,0-5.573.059v-5.321h2.736c2.442-22.007-8.208-50.56-10.517-56.4,3.752,0,7.7-.05,11.608-.269,16.61.747,45.172.562,50.921-9.023C749.583,547.109,744.471,541.444,741.827,539.4Zm-83.453,26.522s1.251.126,3.357.285c2.258,6.438,3.928,17.013,5.111,27.336a181.611,181.611,0,0,0-8.469-27.622ZM682.4,468.189a21.965,21.965,0,0,0,4.658.5h.168l.134,1.1a21.73,21.73,0,0,1-4.96-1.611Zm-10.34,160.686h-.453v-.218s-1.956,0-5.036.05v-5.313h5.472Z" transform="translate(-234.782 -134.848)"/><path class="p" d="M534.454,512,521,646.29l15.972.839L557.09,512Z" transform="translate(-83.719 -82.273)"/><path class="g" d="M536.072,512,526,644.611h10.072L550.34,512Z" transform="translate(-84.522 -82.273)"/><path class="a" d="M862.255,506l13.228,135.129H859.737L847.08,506Z" transform="translate(-136.116 -81.308)"/><path class="g" d="M862.268,507,872.34,639.611H862.268L848,507Z" transform="translate(-136.264 -81.469)"/><path class="a" d="M581.506,505,569,640.129h16.7L599.215,505Z" transform="translate(-91.432 -81.148)"/><path class="g" d="M583.072,505,573,637.611h10.072L597.34,505Z" transform="translate(-92.075 -81.148)"/><path class="a" d="M818.2,507l12.85,138.486H815.687L800,507Z" transform="translate(-128.551 -81.469)"/><path class="g" d="M818.268,512,828.34,644.611H818.268L804,512Z" transform="translate(-129.194 -82.273)"/><rect class="a" width="302" height="15" transform="translate(430.223 421.867)"/><rect class="g" width="242" height="13" transform="translate(433.223 421.867)"/><rect class="g" width="55" height="13" transform="translate(675.223 421.867)"/><rect class="n" width="55.395" height="12.59" transform="translate(675.192 422.174)"/><rect class="a" width="113" height="71" transform="translate(528.223 341.867)"/><rect class="b" width="106" height="67" transform="translate(530.223 343.867)"/><rect class="a" width="35" height="17" transform="translate(567.223 404.867)"/><rect class="b" width="29.376" height="17.626" transform="translate(568.633 404.548)"/><rect class="c" width="3" height="67" transform="translate(636.223 343.867)"/><rect class="c" width="3" height="17" transform="translate(597.223 404.867)"/><rect class="a" width="8" height="8" transform="translate(579.223 367.867)"/><rect class="c" width="6" height="6" transform="translate(580.223 368.867)"/><path class="g" d="M496.424,430.1l54.883,23.324-18.473,35.092L478.58,468.524Z" transform="translate(-76.902 -69.112)"/><rect class="q" width="15.074" height="12.556" transform="translate(421.771 473.053)"/><rect class="q" width="15.074" height="12.556" transform="translate(441.872 473.053)"/><circle class="q" cx="20.093" cy="20.093" r="20.093" transform="translate(435.544 295.908)"/><path class="q" d="M561.463,407.073H543.88l-2.51-20.093h15.074Z" transform="translate(-86.992 -62.183)"/><path class="r" d="M721.745,558.83s10.072,5.036,2.518,17.626-57.778,7.554-57.778,7.554,12.59,30.14,10.072,52.751H656.429s-6.026-51.769-10.97-56.8c-6.4-6.4-1.561-18.649,11-16.14S721.745,558.83,721.745,558.83Z" transform="translate(-237.168 -158.621)"/><g class="s" transform="translate(405.45 399.756)"><path class="b" d="M675.95,588.22s8.83.839,19.632.982c-7.839.084-15.108-.319-19.489-.629Z" transform="translate(-647.971 -563.099)"/><path class="b" d="M670.71,563.8c19.615-.378,55.546-5.506,55.546-5.506a7.562,7.562,0,0,1,.755.462C716.78,560.145,685.725,564.148,670.71,563.8Z" transform="translate(-647.129 -558.29)"/><path class="b" d="M655.318,564.022c-8.553,1.3-11.2,10.911-5.774,16.325,4.969,4.969,11,56.712,11,56.712h-4.113s-6.035-51.744-10.978-56.712C639.211,574.135,643.593,562.427,655.318,564.022Z" transform="translate(-642.614 -559.187)"/></g><path class="r" d="M678.3,657.59s-40.195,0-40.195,5.036,5.036,7.554,5.036,7.554H678.3Z" transform="translate(-236.441 -174.491)"/><path class="t" d="M677.845,657.36v1.376c-7,.05-38.818.546-38.818,5.036a7.663,7.663,0,0,0,1.88,4.952,8.3,8.3,0,0,1-3.257-6.32C637.65,657.36,677.845,657.36,677.845,657.36Z" transform="translate(-236.367 -174.454)"/><path class="r" d="M745.716,558.83s10.072,5.036,2.518,17.626-57.778,7.554-57.778,7.554,12.59,30.14,10.072,52.751H680.392s-2.518-52.751-10.072-57.778-2.518-17.625,10.072-15.108S745.716,558.83,745.716,558.83Z" transform="translate(-241.046 -158.621)"/><path class="r" d="M702.3,657.59s-40.195,0-40.195,5.036,5.036,7.554,5.036,7.554H702.3Z" transform="translate(-240.297 -174.491)"/><path class="u" d="M716.894,484H723c2.409,0,4.129,6.043,5.875,7.738,3.911,3.852,1.309,10.6,11.75,30.761,9.8,18.952,13.118,17.3,16.434,23.92s-59.171,6.32-59.171,6.32,3.181-12.69,2.518-22c-1.376-19.128-6.345-25.75.285-32.381C700.678,498.361,707.787,484,716.894,484Z" transform="translate(-245.956 -146.597)"/><path class="b" d="M499.894,441.54l-8.234,17.844,5.489,2.745,8.234-17.844Z" transform="translate(-79.004 -70.95)"/><path class="t" d="M698.562,436.2a20.331,20.331,0,0,1,2.056.1,20.093,20.093,0,0,0,0,39.985,20.33,20.33,0,0,1-2.056.1,20.1,20.1,0,0,1,0-40.195Z" transform="translate(-242.925 -138.914)"/><path class="v" d="M675.9,430.224c2.014-1.93,4.826-2.719,7.554-3.441l12.162-3.257a43.492,43.492,0,0,1,11.02-1.956,21.387,21.387,0,0,1,6.715,1.1c1.007-.436,2.14-.755,2.887-1a40.213,40.213,0,0,1,9.325-2.249,15.108,15.108,0,0,1,9.232,1.922,11.373,11.373,0,0,1,1,18.566,15.469,15.469,0,0,1-6.656,2.812,25.247,25.247,0,0,1-1.444,11.306,35.089,35.089,0,0,1-5.363,9.123,14.54,14.54,0,0,1-5.254,4.625c-2.157.957-4.935.839-6.6-.839a8.529,8.529,0,0,1-1.956-4.759c-1.267-6.782-2.518-14.579-8.393-18.2-3.685-2.266-7.789-2.048-11.9-2.023a24.8,24.8,0,0,1-10.668-2.442,7.412,7.412,0,0,1-2.669-1.8C673.047,435.6,673.887,432.154,675.9,430.224Z" transform="translate(-242.187 -136.205)"/><g class="s" transform="translate(431.749 283.122)"><path class="b" d="M734.833,424.088a15.107,15.107,0,0,0-9.232-1.922,40.214,40.214,0,0,0-9.325,2.249c-.747.252-1.88.562-2.887,1a21.388,21.388,0,0,0-6.714-1.1,42.766,42.766,0,0,0-11.02,1.956l-12.162,3.257c-2.694.722-5.506,1.511-7.554,3.441a6.816,6.816,0,0,0-1.838,3.24,6.328,6.328,0,0,1,1.838-5.984c2.014-1.93,4.826-2.719,7.554-3.441l12.162-3.257a43.49,43.49,0,0,1,11.02-1.956,21.389,21.389,0,0,1,6.715,1.1c1.007-.436,2.14-.755,2.887-1a40.211,40.211,0,0,1,9.325-2.249,15.108,15.108,0,0,1,9.232,1.922,11.574,11.574,0,0,1,5.313,9.023,10.9,10.9,0,0,1-.092,1.956A11.574,11.574,0,0,0,734.833,424.088Z" transform="translate(-673.949 -419.327)"/><path class="b" d="M739.866,450.44v1.1a5.143,5.143,0,0,0-.076-1.074Z" transform="translate(-684.529 -424.326)"/></g><path class="t" d="M700.41,531.051c-1.376-19.128-6.345-25.75.285-32.381,0,0,7.1-14.361,16.216-14.361h6.11a2.8,2.8,0,0,1,2.014,1.368h-4c-9.115,0-16.216,14.361-16.216,14.361-6.631,6.631-1.679,13.253-.285,32.381.537,7.461-1.4,17.1-2.191,20.622H697.9S701.065,540.351,700.41,531.051Z" transform="translate(-245.956 -146.647)"/><rect class="u" width="21.956" height="15.091" transform="translate(478.525 371.966) rotate(180)"/><g class="s" transform="translate(425.758 399.756)"><path class="b" d="M694.66,563.8c19.615-.378,55.546-5.506,55.546-5.506a7.556,7.556,0,0,1,.755.462C740.721,560.145,709.675,564.148,694.66,563.8Z" transform="translate(-671.286 -558.29)"/><path class="b" d="M679.349,564.032c-8.611,1.309-11.264,10.987-4.868,15.25,7.554,5.036,10.072,57.778,10.072,57.778H680.4s-2.518-52.751-10.072-57.778C663.042,574.406,667.574,562.42,679.349,564.032Z" transform="translate(-666.811 -559.189)"/><path class="b" d="M699.89,588.22s8.83.839,19.631.982c-7.839.084-15.108-.319-19.489-.629Z" transform="translate(-672.126 -563.099)"/></g><path class="q" d="M717.745,519.92v24.029A15.343,15.343,0,0,1,701.8,559.292c-10.617-.411-22.863-.571-24.264.839-1.167,1.167-3.945,3.408-6.6,5.472a3.894,3.894,0,0,1-6.27-3.441c.336-4.037,1.6-8.334,5.321-9.568,3-1,8.393-1.6,13.748-1.964A17.625,17.625,0,0,0,700.128,533V519.92Z" transform="translate(-240.705 -152.369)"/><path class="t" d="M664.7,562.146c.336-4.037,1.6-8.334,5.321-9.568,3-1,8.393-1.6,13.748-1.964a17.626,17.626,0,0,0,16.392-17.626V519.92h17.625v1.368H702.911v13.068a17.625,17.625,0,0,1-16.392,17.626c-5.388.361-10.76.965-13.748,1.964-3.718,1.242-4.994,5.539-5.321,9.568a3.878,3.878,0,0,0,.932,2.887,3.92,3.92,0,0,1-3.685-4.255Z" transform="translate(-240.711 -152.369)"/><path class="t" d="M702.365,657.36v1.376c-7,.05-38.818.546-38.818,5.036a7.663,7.663,0,0,0,1.88,4.952,8.3,8.3,0,0,1-3.257-6.32C662.17,657.36,702.365,657.36,702.365,657.36Z" transform="translate(-240.307 -174.454)"/><path class="w" d="M233,507.395v182.97H556.135V452h9.232" transform="translate(-37.44 -72.631)"/></g></svg>