<svg xmlns="http://www.w3.org/2000/svg" width="48" height="48" viewBox="0 0 48 48"><defs><style>.a{fill:#007ab9;}.b{fill:#f1f2f2;}</style></defs><g transform="translate(0.345 -0.013)"><circle class="a" cx="24" cy="24" r="24" transform="translate(-0.345 0.013)"/><g transform="translate(11.724 10.287)"><path class="b" d="M53.922,39.7V49.63H48.165V40.366c0-2.326-.831-3.915-2.916-3.915a3.149,3.149,0,0,0-2.953,2.1,3.94,3.94,0,0,0-.191,1.4v9.67H36.348s.077-15.69,0-17.314h5.758v2.454c-.012.019-.028.038-.038.057h.038v-.057a5.716,5.716,0,0,1,5.188-2.86c3.788,0,6.627,2.475,6.627,7.792Zm-23.6-15.731a3,3,0,1,0-.076,5.984h.037a3,3,0,1,0,.038-5.984ZM27.41,49.63h5.755V32.315H27.41Z" transform="translate(-27.068 -23.969)"/></g></g></svg>