<svg xmlns="http://www.w3.org/2000/svg" width="572.871" height="384.191" viewBox="0 0 572.871 384.191"><defs><style>.a{fill:#e6e6e6;}.b{fill:#2f2e41;}.c{fill:#ffb8b8;}.d{fill:#d0cde1;}.e{fill:#575a89;}.f{fill:#66bb6a;}.g{fill:#fff;}</style></defs><path class="a" d="M969.4,650.553c-.091-.149-2.243-3.742-2.989-11.2-.684-6.845-.244-18.382,5.739-34.475,11.335-30.487-2.612-55.086-2.755-55.331l.688-.4a61.063,61.063,0,0,1,5.761,16.321,71.2,71.2,0,0,1-2.949,39.687c-11.316,30.435-2.9,44.843-2.817,44.985Z" transform="translate(-415.959 -285.629)"/><circle class="a" cx="5.169" cy="5.169" r="5.169" transform="translate(543.843 251.787)"/><circle class="a" cx="5.169" cy="5.169" r="5.169" transform="translate(560.147 270.874)"/><circle class="a" cx="5.169" cy="5.169" r="5.169" transform="translate(549.013 283.599)"/><circle class="a" cx="5.169" cy="5.169" r="5.169" transform="translate(562.532 294.335)"/><circle class="a" cx="5.169" cy="5.169" r="5.169" transform="translate(545.036 311.036)"/><path class="a" d="M974.672,681.538s-5.169-12.724,10.339-22.268Z" transform="translate(-418.104 -316.424)"/><path class="a" d="M958.186,684.654s-2.353-13.531-20.561-13.415Z" transform="translate(-407.976 -319.77)"/><ellipse class="a" cx="96.845" cy="12.967" rx="96.845" ry="12.967" transform="translate(378.64 358.257)"/><path class="b" d="M868.73,266.868l7.089-1.737a18.256,18.256,0,0,0,17.89-21.894h0a23.862,23.862,0,0,0-23.862-23.862h0a23.862,23.862,0,0,0-23.862,23.862h0a18.962,18.962,0,0,0,22.745,23.632Z" transform="translate(-382.146 -193.414)"/><path class="c" d="M685.922,87.309l10.849,18.66-3.038,9.113-15.622-2.6L670.3,95.988Z" transform="translate(-187.438 -24.415)"/><circle class="b" cx="11.326" cy="11.326" r="11.326" transform="translate(499.153 20.301)"/><path class="b" d="M895.485,214.076a11.32,11.32,0,0,1,13.541-11.106,11.32,11.32,0,1,0-7.034,21.344,11.316,11.316,0,0,1-6.507-10.238Z" transform="translate(-395.464 -188.525)"/><path class="c" d="M797.286,477.268s-1.736,12.151,4.339,11.283,4.339-11.283,4.339-11.283Z" transform="translate(-368.668 -265.53)"/><path class="c" d="M584.881,450.555l-4.339,13.887,10.415,4.339,4.339-18.226Z" transform="translate(-162.339 -125.99)"/><path class="c" d="M692.523,461.982l-.167,14.548,11.223,1.164-1.08-18.7Z" transform="translate(-193.606 -128.349)"/><path class="b" d="M615.452,204.777l52.073,1.735L671,323.678l11.282,67.7-27.772,5.208L631.074,283.755,603.3,386.167l-25.17-2.6Z" transform="translate(-161.665 -57.263)"/><path class="b" d="M779.721,651.311s-4.339-7.811-7.811-3.472-17.358,20.829-17.358,20.829-15.622,15.622,9.547,13.886c0,0,7.811,0,9.547-5.207,0,0,14.754-2.6,14.754-6.943s-3.2-19.553-3.2-19.553Z" transform="translate(-355.442 -312.86)"/><path class="b" d="M891.767,662.155s-4.339-7.811-7.811-3.472S866.6,679.513,866.6,679.513s-15.622,15.622,9.547,13.886c0,0,7.811,0,9.547-5.207,0,0,14.754-2.6,14.754-6.943s-3.2-19.553-3.2-19.553Z" transform="translate(-386.774 -315.893)"/><circle class="c" cx="19.962" cy="19.962" r="19.962" transform="translate(462.032 36.858)"/><path class="d" d="M892.659,301.633l-31.244-.868-18.226,20.829s-16.49,16.49-8.679,28.641V370.2h50.338l13.018-33.848Z" transform="translate(-378.554 -216.173)"/><path class="e" d="M900.207,348.531s-17.836-37.068-8.05-51.08l3.539-8.371,9.718-2.17v2.6l25.169,2.6-6.075,43.395L919.3,435.321l-49.036-9.113,28.641-60.753Z" transform="translate(-389.14 -212.299)"/><path class="e" d="M850.567,295.946l-28.207,18.66S807.606,344.114,804.134,358,778.1,429.168,778.1,429.168H805L841.454,312l11.717-11.717Z" transform="translate(-363.367 -214.826)"/><path class="c" d="M922.868,376.065l-15.622,2.6s-14.754,8.679-11.283,19.094,13.886-11.283,13.886-11.283l18.226-1.736Z" transform="translate(-396.178 -237.23)"/><path class="e" d="M737.268,114.274l6.943-3.471L773.72,169.82,739,186.31l-13.886-19.093,18.225-5.208-13.018-21.7Z" transform="translate(-202.768 -30.984)"/><path class="b" d="M875.8,228.28l-15.272-2.792-11.733,7.374a17.812,17.812,0,0,0-8.183,17.393l11.757-3,2.625-6.607,3.143,5.137,7.72-1.967,17.773,22.006,1.425-21.258Z" transform="translate(-380.805 -195.123)"/><ellipse class="c" cx="2.17" cy="3.906" rx="2.17" ry="3.906" transform="translate(487.734 52.589) rotate(-19.977)"/><rect class="a" width="62.016" height="62.016" transform="translate(31.361 122.976)"/><rect class="f" width="39.465" height="39.465" transform="translate(42.969 134.371)"/><rect class="f" width="124.738" height="86.682"/><path class="g" d="M278.7,206.815a26.427,26.427,0,1,0,26.427,26.427A26.427,26.427,0,0,0,278.7,206.815Zm0,7.928a7.928,7.928,0,1,1-7.928,7.928,7.928,7.928,0,0,1,7.928-7.928Zm0,38.167a19.252,19.252,0,0,1-15.856-8.461c.127-5.285,10.571-8.2,15.856-8.2s15.729,2.91,15.856,8.2a19.284,19.284,0,0,1-15.856,8.462Z" transform="translate(-216.327 -189.902)"/><rect class="a" width="62.016" height="62.016" transform="translate(155.378 122.976)"/><rect class="f" width="39.465" height="39.465" transform="translate(166.986 134.371)"/><rect class="f" width="124.738" height="86.682" transform="translate(124.017)"/><path class="g" d="M450.854,206.815a26.427,26.427,0,1,0,26.427,26.428A26.427,26.427,0,0,0,450.854,206.815Zm0,7.928a7.928,7.928,0,1,1-7.928,7.928,7.928,7.928,0,0,1,7.928-7.928Zm0,38.167A19.252,19.252,0,0,1,435,244.449c.127-5.285,10.571-8.2,15.856-8.2s15.729,2.91,15.856,8.2a19.284,19.284,0,0,1-15.856,8.462Z" transform="translate(-264.468 -189.902)"/><rect class="a" width="124.738" height="86.682" transform="translate(248.12)"/><path class="g" d="M623.131,206.815a26.427,26.427,0,1,0,26.427,26.427A26.427,26.427,0,0,0,623.131,206.815Zm0,7.928a7.928,7.928,0,1,1-7.928,7.928A7.928,7.928,0,0,1,623.131,214.743Zm0,38.167a19.252,19.252,0,0,1-15.856-8.461c.127-5.285,10.571-8.2,15.856-8.2s15.729,2.91,15.857,8.2a19.284,19.284,0,0,1-15.857,8.462Z" transform="translate(-312.643 -189.902)"/><rect class="a" width="62.016" height="62.016" transform="translate(279.48 122.976)"/><rect class="g" width="39.465" height="39.465" transform="translate(291.089 134.371)"/><path class="g" d="M81.114,218.115l-6.844-8.8,3.98-3.1,3.24,4.167,10.948-11.556L96.1,202.3Z" transform="translate(-20.768 -55.599)"/><path class="g" d="M253.114,218.115l-6.844-8.8,3.98-3.1,3.24,4.167,10.948-11.556L268.1,202.3Z" transform="translate(-68.865 -55.599)"/><path class="a" d="M425.113,218.115l-6.843-8.8,3.98-3.1,3.241,4.167,10.947-11.556L440.1,202.3Z" transform="translate(-116.962 -55.599)"/></svg>